<?xml version="1.0" encoding="UTF-8" standalone="no"?>
<svg xmlns="http://www.w3.org/2000/svg" xmlns:xlink="http://www.w3.org/1999/xlink" version="1.1" viewBox="0 0 1038 950" width="1038" height="950">
	<style type="text/css">
.text {font-family:Liberation Sans,Arimo,Helvetica,Arial,sans-serif}
.title {font-weight:bold;font-family:Adobe Garamond Pro,Garamond,Linux Libertine O,Liberation Serif,Times,TimesNewRomanPSMT,serif}
.line {fill:none;stroke-width:3;stroke-linecap:round;stroke-linejoin:round}
.ae {stroke:#00888a}
.dn {stroke:#f173ac}
.er {stroke:#53b7e8}
.il {stroke:#007dc5}
.kt {stroke:#00ab4e}
.mos {stroke:#923011}
.sie {stroke:#bac429}
.tko {stroke:#7d499d}
.tw {stroke:#ed1d24}
.tc {stroke:#f7943e}
.wr {stroke:#a3238f}
.path {stroke-width:2;fill:none}
.narrow {stroke-width:1;fill:none}
.lr {stroke:#d3a809}
.np {stroke:#94989a}
	</style>
	<defs>
		<circle cx="0" cy="0" r="3" id="station" style="fill:#fff;stroke:#000;stroke-width:1"/>
		<rect width="6" height="10" rx="3.5" x="-3" y="-5" id="interchange" style="fill:#fff;stroke:#000;stroke-width:1"/>
		<path d="m 8,0 -8,4 0,18 11,5 0,21 8,0 L 19,27 30,22 30,4 22,0 22,16 15,20 8,16 8,0" transform="matrix(0.212132,0.212132,-0.212132,0.212132,-1.35,-1.8)" id="depot" style="fill:#fff;stroke:#000;stroke-width:2"/>
	</defs>
	<rect width="1038" height="950" fill="#7fc9ee"/>
	<g fill="#eaebed">
		<path id="newterritories_kowloon" d="m 370,134 -13,27 3,7 -8,3 -6,29 -37,24 2,-27 -37,-35 -12,32 -4,20 -19,8 -18,19 -10,16 0,17 -33,13 -28,15 -4,20 -12,3 -4,28 -20,15 -22,6 -40,8 -30,32 -6,13 16,9 7,-3 5,5 7,9 -3,5 7,17 13,9 1,19 -11,3 -4,14 24,23 12,11 10,-13 8,4 -8,16 14,7 3,-4 24,5 3,-7 -4,-10 11,-7 21,-15 37,7 -12,-23 -4,-9 1,-8 9,-8 4,-21 14,-31 -11,33 -4,20 -9,8 -1,6 5,9 18,-7 16,9 0,4 12,8 8,26 18,-1 5,11 6,1 20,-10 20,6 7,16 32,5 25,-7 1,-4 18,-6 5,2 32,-17 15,8 14,1 0,-4 7,-8 11,1 5,0 3,-7 20,6 11,0 7,-2 11,0 15,-12 13,12 9,13 -2,11 5,1 6,13 -5,6 4,4 0,11 6,0 6,-2 9,29 13,-2 2,4 -11,5 6,23 19,-7 3,8 -31,9 -7,10 22,13 11,4 0,7 3,0 1,-13 7,-1 1,7 -5,4 8,-3 0,-6 11,6 9,-16 4,-1 0,-3 -5,-4 -9,4 -3,-3 5,-6 0,-3 -5,-1 0,-2 13,-1 23,17 0,13 12,1 1,29 -6,9 -6,0 0,-8 -1,-2 -2,-1 1,3 0,22 11,1 1,-3 7,-1 4,-4 10,-1 0,6 -4,1 0,1 5,-1 0,3 -5,1 1,1 4,-1 0,3 -4,2 1,0 5,-1 0,2 -9,3 2,4 4,0 4,-2 2,4 16,-1 5,-3 -1,-5 12,-10 L 770,738 l 0,8 2,-1 0,-8 4,3 23,-11 2,-17 -5,-2 3,-4 -3,-5 0,-7 9,-18 55,51 5,-5 -6,-5 0,-5 -4,-3 -6,-1 -15,-15 3,-4 10,8 7,-5 18,19 -5,6 4,-1 3,-3 1,5 5,1 -2,3 35,40 5,6 -2,2 18,8 14,-20 21,-23 18,-1 8,-14 2,-1 -10,18 2,3 0,2 8,5 0,13 11,0 -1,7 -11,17 1,4 -5,10 -3,10 3,0 1,9 1,0 1,-5 3,-1 1,8 2,-2 1,-7 4,0 1,8 2,4 -5,0 0,4 12,20 3,-2 5,0 14,-10 12,4 0,-169 -26,3 -10,-2 -2,-22 -4,-5 0,-6 -2,-5 -2,-7 -6,0 -4,-13 2,-12 7,-6 -3,-7 -8,2 -5,-10 -7,0 0,-6 -23,6 10,-7 11,-5 -7,-9 4,-6 6,4 -1,-8 1,-8 15,4 6,-2 1,13 -10,5 -1,13 3,1 5,-4 6,0 6,9 4,9 5,0 0,-10 3,1 7,-11 -7,-10 -3,0 -2,-5 -4,-4 -5,-15 10,-16 -3,-18 7,-9 17,-4 9,16 0,-123 -26,7 -5,11 -11,0 -8,-11 9,-25 -7,-21 -23,8 -10,4 3,-6 -11,-4 4,6 -24,2 -4,-11 -6,-4 -12,1 -3,4 4,4 0,5 -14,11 -12,2 -8,9 -9,19 -4,25 1,5 -7,5 -40,47 17,18 -19,-15 -35,36 -14,4 -10,4 8,-5 13,-6 33,-36 -15,-15 18,11 41,-48 -10,-7 5,-35 -1,-10 -21,-16 -11,2 5,-6 -25,-20 -22,0 -25,-15 -1,-9 -11,-7 -19,-1 -13,5 11,-7 19,0 10,6 11,0 2,-7 14,-1 15,3 15,-5 0,-12 10,-8 10,7 8,3 6,-1 8,3 -1,6 -11,11 17,3 -2,5 9,-3 -2,-4 16,0 7,3 19,-12 7,-15 -5,-3 -10,3 -13,16 -10,2 -8,-5 0,-4 3,-3 0,-2 -26,-9 -3,-18 14,-22 10,8 0,7 14,0 3,6 4,-15 2,3 14,-6 3,5 -4,6 9,1 35,38 -2,19 8,-11 11,-2 13,-6 8,-17 8,-6 9,-11 18,-4 -3,-7 9,-3 26,-9 0,-8 -26,10 -9,1 -6,-2 0,-3 -8,1 0,3 -11,3 -14,13 0,11 12,-3 1,5 -6,4 -5,5 -4,10 -11,-3 7,-2 -6,-3 -9,3 -6,10 -37,-39 2,-10 22,-31 -7,-41 7,16 51,18 -4,6 10,0 6,-16 25,-4 26,14 0,-102 -26,-21 -13,5 -24,-1 4,-19 8,-1 -2,-13 -12,10 4,-20 -18,3 4,-10 10,-5 -12,-9 -12,2 -17,-6 -13,1 -16,47 -13,3 -5,-5 -22,6 -9,17 -4,-6 -19,2 -2,-24 11,5 3,-14 22,-16 -11,3 34,-7 0,-5 6,-5 5,-11 -232,0 -4,12 -8,1 -9,12 -9,-2 -12,11 -9,-2 -33,22 -3,8 -12,5 -9,-5 -11,-10 -21,4 -10,-8 -14,1 -5,11 -18,5 -13,33 -23,6 -15,13 -7,24 -22,9 -12,-6"/>
		<path id="tsingyi" d="m 569,552 3,9 0,14 7,15 2,9 9,45 -8,9 -4,1 0,-1 2,0 0,-2 -8,1 0,5 -8,1 -6,-3 -21,2 -1,4 -9,0 -9,-16 5,-16 5,-4 -1,-2 -7,0 0,-6 3,-1 -1,-4 -3,-3 -15,-2 2,-10 -3,-2 0,-8 -7,-1 -3,-6 0,-8 -1,-3 2,-6 15,-7 5,-3 7,0 0,3 20,1 7,-5"/>
		<path id="hongkongisland" d="m 602,785 -12,14 1,10 6,3 1,4 11,5 22,41 3,8 12,15 13,2 34,0 5,3 10,1 18,17 -4,8 1,7 5,0 0,5 -3,3 17,12 6,-7 2,-18 12,-20 15,-3 6,6 0,14 6,8 -19,-1 -5,4 11,8 10,-4 3,-7 5,0 9,-4 8,9 0,8 -4,4 0,5 2,3 -3,6 -7,0 -6,2 6,2 18,10 4,0 1,11 -10,3 -1,7 -3,5 6,6 7,-3 0,-5 12,0 4,-6 -2,-4 11,-4 2,-5 8,13 -1,7 -6,6 0,25 31,0 -8,-11 -1,-6 -3,-2 0,-6 3,-1 2,-7 6,-2 -1,-8 -13,-5 -7,-7 2,-12 9,-10 0,-5 6,0 6,-10 8,9 7,-1 1,-9 -2,-15 -6,-1 -2,-8 11,-2 11,7 1,12 5,44 4,6 6,-2 5,5 1,17 -3,1 4,9 12,4 14,-4 4,5 5,-1 0,-3 3,0 2,2 3,0 -2,5 4,1 2,3 3,0 -1,-8 3,-5 -8,-5 -1,-4 -2,0 -6,3 -3,-2 1,-2 3,-1 -2,-3 0,-19 -10,-25 2,-2 7,2 4,1 2,0 -2,-3 5,0 5,-2 -1,-5 -6,3 -7,-1 -6,-4 4,-11 -7,-10 0,-10 -9,0 -1,-4 1,-6 4,0 7,-9 4,2 2,-4 0,-5 7,-16 -5,-7 2,-5 5,-2 -24,-21 -2,3 -4,-4 -2,-8 -4,-7 0,2 3,6 -2,2 2,6 -5,5 -5,-9 5,-6 -6,-18 -5,-2 0,-4 -14,-10 -15,-8 -1,1 14,8 -21,3 -1,-8 -14,-11 -12,-2 -27,-13 -16,1 -20,9 -1,7 -6,2 -14,-1 -11,11 -14,5 -2,-10 -5,0 -3,8 c -8,0 -17,-3 -21,-4 l -5,-7 -26,-7 -3,1 0,2 -3,0 -1,-2 -3,0 -3,-2 -21,-1 -11,4 -9,0 -13,12"/>
		<path id="apleichau" d="m 678,893 -3,2 -5,1 -5,3 0,3 3,0 8,5 1,7 10,2 6,8 14,5 0,8 7,6 3,0 -3,-7 1,-4 -6,-4 0,-2 4,-11 -1,-6 -5,-4 2,-4 0,-5 -6,-2 -11,2 -7,-3"/>
		<path id="tsingchau" d="m 582,774 -6,4 -1,5 3,4 11,-2 1,-3"/>
		<path id="mawan" d="m 454,574 -4,7 0,3 -3,3 1,7 10,7 -16,11 -12,-9 2,-5 -9,-5 10,-4 1,-6 -7,-4 8,-6 6,-1 4,4"/>
		<path id="lantau" d="m 401,591 -3,2 -1,12 -6,5 -1,5 -26,17 -4,1 -4,-4 -12,5 -6,-4 4,7 0,5 -8,0 -1,-5 -14,12 -3,-1 -9,6 1,5 -37,21 -15,20 -12,1 -23,15 -6,9 -60,26 -37,3 -12,12 0,6 -15,15 -13,-8 -3,-18 -12,2 -10,-7 -14,7 -11,-4 -14,7 -8,-5 -6,4 0,160 10,-8 12,23 -16,9 -6,-2 0,16 2,14 27,26 14,5 7,-13 8,0 6,11 28,-10 -1,-18 -23,-9 9,-19 7,6 18,-3 3,-7 47,-18 12,8 13,-4 2,-10 28,-15 22,17 -11,20 18,21 -9,13 19,11 26,-17 11,11 10,0 1,-9 19,-18 8,0 13,-18 -30,-15 -11,4 -31,-23 48,68 -13,-122 -24,-19 13,-14 33,21 20,-4 3,-37 -1,-13 -12,-12 5,-10 0,-7 8,5 14,0 -6,-9 -1,-11 -16,7 -13,-4 1,-8 12,-1 -1,-7 -10,-4 0,-4 4,-4 0,-8 22,0 10,-9 16,14 18,6 14,-5 5,2 8,-4 -6,0 0,-16 7,-4 -8,-8 4,-1 8,-8 4,5 2,-5 -5,-7 7,-18 -4,-3 8,-13 -2,-8 -16,-21"/>
		<path id="airport" d="m 130,667 -24,7 -5,-9 -101,35 0,19 5,12 -5,6 0,17 6,2 14,-6 36,1 41,13 17,-13 -3,-5 -1,-15 8,-3 -4,-8 4,-18 15,-26"/>
		<path id="lammaisland" d="m 597,909 -6,6 -17,5 -12,10 11,8 -7,4 1,8 3,2 -3,8 -8,8 -7,4 -1,9 34,0 0,-12 16,5 3,27 -4,7 4,4 1,12 70,0 4,-6 4,0 0,-6 5,0 8,6 5,0 11,-10 0,-8 -5,-8 -15,11 -3,-14 -29,17 -9,-6 -13,5 -10,11 -6,-8 2,-9 19,-11 5,-7 0,-9 -6,-6 0,-5 5,-4 0,-5 -5,-3 -7,4 0,5 3,3 0,6 -8,6 -6,-1 -5,-11 0,-12 -15,-8 0,-10 6,-5 0,-10"/>
		<path id="cheungchau" d="m 372,958 -8,5 -3,-1 -7,0 -8,5 -3,6 4,1 0,5 -5,7 -4,-2 -2,4 7,5 7,0 5,5 1,7 -3,4 -14,3 -5,8 -3,1 -1,3 28,0 2,-3 6,0 2,-3 6,6 5,0 0,-4 6,-1 2,-6 4,-2 0,-2 -4,-2 -3,-5 -8,4 -10,-4 -7,-11 2,-8 17,-6 -3,-2 -8,1 0,-3 10,-9"/>
		<path id="heilingchau" d="m 392,856 -34,0 -9,5 7,11 10,-3 7,14 7,-1 5,10 0,9 14,7 7,-16 -8,-11 2,-8 1,-10"/>
		<path id="sunshineisland" d="m 427,837 -12,3 -2,3 -8,4 -1,4 -2,2 2,5 3,1 2,3 6,0 4,-5 4,0 5,-6 0,-3 4,-5"/>
		<path id="pengchau" d="m 388,756 -14,10 3,9 3,5 2,3 -3,4 8,9 16,-5 4,-10 -3,-2 0,-6 -6,0 -9,4 -2,-2 3,-5 10,-3 3,-6 -7,-5"/>
	</g>
	<path id="shenzhen" style="fill:#f4ecc8" d="m 0,0 677,0 -3,10 -8,1 -8,11 -8,-1 -13,11 -9,-2 -35,23 -3,8 -10,4 -8,-5 -11,-10 -22,4 -10,-8 -16,2 -5,10 -18,5 -13,33 -22,6 -18,11 -8,25 -17,7 -11,-6 -30,-9 -16,-5 -12,-27 -34,-23 -34,-4 1,10 -13,7 -11,-5 -15,6 -93,0 -1,9 4,5 -1,4 -4,3 -3,9 4,6 -2,13 -6,5 3,5 0,8 -3,11 1,10 2,3 -17,8 -15,-6 -2,2 12,12 -8,9 -9,-8 -4,2 -3,14 -25,-7 1,-7 7,0 1,-3 -19,-9 -1,11 -4,4 -11,-2 -3,6 -1,10 -12,7 2,4 -3,6 -6,-6 -6,5 10,10 -16,7 -2,-3 -4,3"/>
	<path id="airport_symbol" style="fill:#ccc" d="m 57.932759,737.34698 -0.856121,-15.47472 -6.372176,2.37389 -4.720374,7.09423 -4.328866,-11.61985 8.176484,2.18291 6.465885,-2.4088 -9.536099,-12.13437 18.004771,9.08616 8.621179,-3.21174 0.872756,2.34271 -8.527471,3.17683 -7.799968,18.59275 z"/>
	<g class="title" style="font-size:30px;fill:#ccc;text-anchor:middle">
		<text x="820" y="660">Kowloon</text>
		<text x="155" y="830">Lantau Island</text>
		<text x="790" y="870">Hong Kong Island</text>
		<text x="642" y="406">New Territories</text>
		<text x="405" y="80">Shenzhen</text>
	</g>
	<path id="LRT_pathmain" class="lr path" d="m 218.286,409.824 c 0.35215,-1.50457 -0.51289,-1.49024 -3.09808,-2.45391 -2.81729,-1.05018 -2.14148,4.06959 -3.45874,7.37009 -1.48148,3.71195 -4.43762,7.42026 -8.03069,9.17046 -3.95408,1.92605 -8.74553,1.0724 -13.14267,1.1705 -4.50203,0.10041 -7.09659,-1.87692 -11.04022,-1.53291 -4.25702,0.37135 -5.08768,0.43141 -5.87598,3.60829 -0.46295,1.86571 -0.29632,4.49809 1.24682,5.64435 3.05456,2.26892 6.18106,2.19977 7.91786,4.50683 2.65299,3.67821 0.41181,4.14297 0.70609,7.27003 0.43192,4.58959 0.87617,10.19129 0.82811,14.58684 -0.0185,1.68925 0.2754,7.48477 0.26012,8.91219 -0.094,8.78199 0.35844,6.63275 -1.53948,16.42617 -1.79583,9.26665 -0.39938,6.11236 -3.9599,12.3203 l -8.31971,14.5058 c -1.50857,2.63026 -1.00605,3.07524 0.46218,5.72821 1.42812,2.5805 1.43167,2.91113 3.2127,3.36633 l 12.9955,3.3214 c 0.60824,0.15545 0.48165,0.93664 -0.42097,0.71629 l -2.43497,-0.59442 c -0.86516,-0.2112 -0.73372,-1.00179 -1.27502,-1.15833 -1.10137,-0.31853 -1.63216,1.24438 -0.70967,1.46836 l 8.45258,2.05227 c 1.54579,0.37532 1.50383,1.28363 -3.74893,-13.11102 -0.18231,-0.4996 -0.005,-1.06362 -0.007,-1.59542 l -0.0171,-3.81017 c -0.003,-0.66326 0.29777,-0.99716 0.90119,-1.27251 l 8.1028,-3.69742 c 2.36267,-1.07812 0.0767,-9.34415 2.97474,-9.37675 l 9.15415,-0.10303 c 1.07135,-0.0121 1.77327,-1.39107 1.79227,-2.79859 l 0.34955,-25.92019 c 0.0106,-0.78313 1.23262,-1.48963 1.6566,-1.46229 l 8.19634,0.52847 c 7.7041,0.49673 -1.96631,-22.5914 0.2904,-31.78335 0.5926,-2.41376 2.83718,-5.61173 2.74938,-8.09563 -0.16351,-4.62793 -7.89034,-6.79782 -6.48444,-10.47203 l 1.31433,-3.4349 c 0.81982,-2.14252 2.27266,-3.43535 2.7908,-4.80641 2.342,-6.19734 2.47421,-6.94903 8.88171,-14.96171 26.20586,-32.77088 12.31144,-19.27025 76.46859,-66.18184 4.37061,-3.19579 9.20163,-5.37435 18.32076,-5.37435 l 40.752,0 c 2.41929,0 4.37025,-4.97885 7.5,-5 M 216.13,415.678 l -7.6804,23.72254 c -0.99423,3.07089 -3.85472,5.24278 -5.15597,8.1967 -0.41363,0.93896 -0.28447,1.13559 -0.81623,2.96789 -6.30378,-1.49084 -5.62546,-0.78799 -6.53639,-2.91734 l -3.96995,-9.27999 c -0.48581,-1.13562 -0.96869,-1.32858 -2.07151,-1.45449 -1.90632,-0.21765 -5.48476,-0.57864 -7.09555,0.39469 M 202.477,450.565 c 0,0 -1.54875,6.23953 -2.06841,9.16093 -0.27265,1.5328 0.23799,1.8658 1.78303,2.05731 l 6.3686,0.78939 c 1.11967,0.13878 1.96825,0.88167 2.00378,1.97137 M 184.34967,458.1458 c 0.62554,1.02709 1.33003,1.20077 2.24064,1.28044 l 11.4463,1.00144 c 1.0033,0.0878 2.14659,0.26251 2.61337,0.83065 M 210.214,490.464 l 0.0195,7.05757 c 0.007,2.62968 2.96607,0.31557 5.99442,-0.13828 M 216.97176,413.25911 l -0.84193,2.41903 c -0.32449,0.93232 -0.83858,0.89974 -2.48007,0.16808 -1.90418,-0.84876 -1.77503,-0.56355 -2.49911,0.13178 M 289.76714,301.17354 l 8.33437,-6.14394 c 0.61896,-0.45628 0.89729,-1.48977 0.4168,-2.42428 l -4.47021,-8.69397 c -1.78847,-3.47833 3.65155,-7.01057 2.7287,-10.81133 -0.99323,-4.0906 -7.12213,-5.50076 -8.1415,-9.58493 -0.88441,-3.54344 4.32586,-7.16844 2.95045,-10.55169 -0.26512,-0.65214 -0.47565,-1.45798 -1.10551,-1.74469 l -8.80947,-4.01001 c -0.80451,-0.36621 -2.71824,0.62498 -3.06021,1.44008 l -4.22871,10.07932 c -1.9839,4.72872 0.20158,10.33528 1.61832,13.55086 l 6.8301,15.50236 c 1.14255,2.59326 3.4308,5.85307 4.55042,8.45631 l 9.21393,21.42335 c 1.22732,2.85365 -5.23398,5.59085 -5.28566,8.50515 l -0.14868,8.38507 M 289.66126,265.51064 c -0.80522,-0.77117 -1.54242,-0.96255 -2.22266,-0.56977 -3.34731,1.93279 -6.6307,3.35418 -9.978,5.28698 -0.60675,0.35035 -2.00141,0.17266 -2.59576,-0.7185"/>
	<path id="LRT_path2" class="lr narrow" d="m 183.8079,446.59068 c -0.37002,1.25629 -0.96103,1.30849 -1.66779,1.33455 -1.11054,0.0409 -0.90763,0.47744 -0.89209,1.60833 0.04,2.91032 -0.6348,2.26235 -0.58999,4.17258 0.0189,0.80357 -0.13448,1.68421 1.8191,1.66964 1.57271,-0.0117 1.86383,1.42028 1.86383,1.42028 M 210.40224,474.42479 c -0.87676,1.973 -1.23569,1.54863 -3.40886,1.60251 -3.22838,0.08 -2.51967,-0.71039 -2.54441,4.22036 -0.0147,2.93261 -0.33339,2.69781 1.7092,2.71095 4.05692,0.0261 3.77743,-0.008 4.13179,-1.19604" stroke-width="1"/>
	<path id="eastrailmain" class="er line" d="m 586.97195,66.725894 c 1.32751,10.905756 5.86337,19.881354 6.36137,33.910606 0.38726,10.9095 2.39085,21.82226 13.16668,31.8635 l 45.42959,42.33266 c 10.78665,10.05133 23.56503,8.08229 31.29647,11.50738 7.30409,3.23577 12.75788,8.85919 11.24292,19.4873 -7.602,53.33152 -3.56435,34.63095 -11.85882,60.43584 -2.27041,7.06346 3.54392,12.19994 6.90961,13.69452 10.69189,4.74786 19.21544,8.73806 21.48023,15.0423 2.89114,8.04774 9.3964,19.723 26,20 12.83027,0.21405 17.95863,1.26978 26,6 l 17,10 c 4.37344,2.57261 9.05456,6.2488 18.99068,6.07899 7.09447,-0.12124 11.64902,1.71153 13.95151,6.40086 1.3878,2.82645 0.76904,7.51193 6.05781,11.52015 l 21,16 c 7.80798,5.94894 9.25217,10.39406 9,15 -0.32468,5.93024 -7.84079,9.33605 -8,15 -0.21139,7.52034 4.88444,10.04134 4,15 -1.07074,6.0032 -6.77168,10.55807 -12,14 -5.63466,3.70943 -10.65204,4.47669 -16.77519,12.53828 L 806,456 c -0.70194,0.92416 -0.67377,2.18978 -7,12 -1.89634,2.94069 -8.83498,12.92201 -11,16 -2.94856,4.19195 -5.27944,8.77394 -8,13 -1.32678,2.06099 -2.23702,8.82122 -11,17 l -15,14 c -10.02314,9.35493 -21.48342,16.1061 -17.50647,37.34387 l 9.40341,50.21618 c 0.76161,4.06712 2.36431,6.96398 3.43012,8.46566 2.97468,4.19118 6.9633,14.63135 4.30492,23.22019 C 748.89821,662.53997 744.56279,665.56932 745,673 c 0.30181,5.12948 0.6728,7.1473 1.42375,9.84897 l 2.9931,10.76823 c 1.44031,5.18176 9.60172,11.59406 12.50075,15.3144 4.82188,6.18794 4.85996,8.65238 5.0824,16.0684"/>
	<path id="lokmachauspur" class="er line" d="m 459.34697,111 c 29.02057,-1.91944 23.78718,5.39701 26.06142,13.27151 3.22139,11.15397 8.49708,9.14781 19.18797,7.41258 8.53474,-1.38527 18.75738,-5.34447 33.82908,-5.42051 l 49.95703,-0.25203 c 6.09346,-0.0307 13.0695,1.99742 18.11753,6.48845"/>
	<path id="racecoursespur" class="er line" d="m 833,430 c -2.81619,2.74532 -4.37543,6.26861 -6,10 -2.02344,4.64754 -3.07668,5.99881 -5.5,9 -2.92878,3.62719 -7.50491,8.65387 -9.5,11 -2.77757,3.26629 -9.82593,3.37048 -13,8"/>
	<path id="mosrail" class="mos line" d="m 938.83378,358.91701 -9.44163,2.25141 c -2.64446,0.63059 -4.14025,3.09068 -5.59113,4.90844 C 920.55133,370.1483 916.76733,368.68234 901,370 c -5.99468,0.50097 -8.08169,2.82216 -9.67245,7.46174 L 886,393 c -2.04747,5.97161 -3.77059,10.96396 -3.77059,10.96396 -1.38382,4.75136 0.21226,6.77863 -2.22941,14.03604 -1.4483,4.30481 -3.52198,8.79638 -5.77593,11.39684 C 868.26332,436.27397 860.29193,439.35987 855,445 c -3.44139,3.66783 -8.22693,10.05997 -10,15 -1.67849,4.67652 1.76461,10.42865 -4,17 -8.03349,9.15776 -8.51954,9.84911 -16,18 -7.87397,8.57966 -10.27673,7.22599 -19,17 -3.38358,3.79115 -7.5859,6.56777 -13.43513,7.51066 C 790.83911,519.78886 788.4145,520 786.62302,520 L 775,520 c -4.97958,0 -6.11008,2.7547 -9.02296,4.30832 -3.07395,1.63952 -6.12627,1.75709 -9.97704,5.69168 -3.73509,3.81639 -6.40255,5.80299 -9.75895,9.4816"/>
	<path id="westrail" class="wr line" d="m 770,725 c -0.45978,2.90628 -1.56365,5.51217 -3,8 -0.82734,1.43299 -2.78506,4.02805 -4,5 l -10,8 c -1.19786,0.95829 -1.87601,0.99088 -4,2 -2.32095,1.1027 -3.89993,1.77999 -5,2 l -5,1 c -3.72107,0.74421 -3.83436,-2.15316 -4.39337,-5.30108 -2.14188,-12.06156 -1.12052,-9.62641 -7.12675,-27.07601 -3.48768,-10.13257 -7.50047,-21.61506 -9.83142,-26.91653 -6.78445,-15.43044 -13.80834,-25.24642 -23.6495,-34.79885 -5.73414,-5.56591 -12.89952,-9.68619 -17.59527,-11.82982 -11.73425,-5.35673 -31.38103,-6.10026 -31.14436,-17.8604 0.16545,-8.22121 -9.23591,-26.47251 -12.90793,-33.10678 -6.32036,-11.41903 -10.13622,-16.04279 -18.01453,-23.21909 -5.40313,-4.92167 -14.85111,-5.97716 -19.44153,-11.16291 -5.04041,-5.69409 -13.73415,-13.97384 -20.54256,-21.20517 -7.84349,-8.33069 -13.28524,-15.22991 -20.09445,-24.47543 L 471,401 c -2.51667,-3.41713 -5.02487,-8.96018 -6,-13 l -7,-29 c -1.4751,-6.11114 -2.84102,-8.02146 -7,-14 l -16,-23 c -9.24963,-13.29634 -14.11871,-13.77724 -25,-13 l -21,1.5 c -4.09118,0.29223 -10.74064,0.83042 -16,0.5 -10.05746,-0.63186 -10.53217,-4.21486 -22,-4 -22.55664,0.42262 -38.08347,-23.02873 -59,-4 -52.28994,47.57055 -40.94671,27.15566 -71,107 -7.09095,18.83894 -12,39.75 -16,53"/>
	<path id="disneyline" class="dn line" d="m 349.569,652.696 c 5.9216,-3.71283 8.92886,-5.3686 10.431,-6.696 8.87854,-7.84572 15.37249,4.20171 14,11 -2.46772,12.22314 -3.38805,36.10266 27,35"/>
	<path id="airportexpress" class="ae line" d="m 125.91892,671.61862 c -12.39684,4.06357 -23.84715,1.89555 -17.22892,17.46169 12.0326,28.30081 -6.10699,30.71463 0.70099,54.14236 5.86363,20.17805 22.4022,27.95883 39.15861,15.96394 9.54735,-6.83436 18.47685,-13.55436 36.63192,-17.61942 7.99184,-1.78943 18.66828,-4.7158 34.46798,-15.20819 M 349.569,652.696 c 4.05731,-5.17915 3.5478,-6.87252 6.85079,-10.72682 C 360.67045,637.00903 362.66031,637.26661 367,634 m 176.5,-65 c 9.80864,-1.61988 16.72967,-0.22118 23.4282,0.63491 1.97504,0.25241 4.04323,0.54949 6.08661,1.18662 l 16.56246,5.1642 c 2.12818,0.66357 4.33109,1.39026 6.20506,2.71264 l 12.35802,8.72048 c 3.94274,2.78221 5.60024,7.22314 7.76193,10.10882 10.97766,14.65427 14.39559,27.22878 20.85234,35.06713 9.58705,11.63847 21.05481,11.90775 36.6506,17.64398 4.75969,1.75064 11.94785,6.39577 17.49439,11.67139 7.39186,7.03081 15.30826,19.21896 20.72746,31.15981 4.22582,9.31134 5.67131,16.30272 0.0632,30.70702 -1.27338,3.27062 -2.72709,7.39125 -4.69025,10.723 m -13.4095,34.0595 c 1.39994,3.24631 7.90777,8.88538 13.34337,11.25039"/>
	<path id="tungchungline" class="tc line" d="m 116.80148,771.21646 c 7.72453,-7.6013 11.01664,-12.46873 15.19963,-13.14975 l 12.31196,-2.00447 c 10.26297,-1.67088 13.32062,-11.28895 40.86637,-17.53855 19.37856,-4.39663 22.20078,-4.20626 34.46982,-12.16462 l 40.19949,-26.07555 c 8.23545,-5.34195 6.79086,-16.48625 20.21838,-22.66339 l 30.3815,-13.97658 c 6.92981,-3.18796 20.03455,0.34475 26.98556,-2.70408 2.68028,-1.17562 9.89571,-5.84172 12.13491,-8.24341 4.8747,-5.22845 2.99871,-2.61339 7.93155,-8.00941 4.79285,-5.24289 5.6371,-7.89937 9.49935,-10.68665 22.22096,-16.03627 17.62425,-11.97941 34.9906,-12.50484 4.74174,-0.14347 13.25569,-3.89887 19.00622,-7.61026 l 19.33264,-12.47729 c 3.53277,-2.28005 6.50363,-3.10286 8.55038,-4.16183 L 543.5,569 c 6.50469,-1.94176 15.13407,-3.75551 23.70407,-2.50097 2.12809,0.31153 5.25217,0.99352 7.536,1.71035 l 14.39894,4.51942 c 2.10087,0.6594 4.5172,1.40614 6.79618,2.947 l 13.85071,9.36471 c 4.96641,3.35788 5.47069,6.59659 8.83936,11.31926 12.55395,17.59985 13.98929,26.3215 20.53984,34.62015 8.40322,10.64572 22.99005,11.53835 35.76343,16.67894 5.16658,2.07927 11.89341,6.40882 18.07512,12.46913 10.06389,9.86624 15.87976,20.299 21.12301,31.18763 3.85826,8.01243 6.24251,20.50003 0.61552,32.37082 -1.51327,3.19243 -5.35063,8.18211 -7.74218,10.81356 -12.21491,13.4402 -17.93175,22.61515 -13.40938,34.05953 1.16346,2.94426 8.93088,6.40393 14.36637,8.42828"/>
	<path id="airportexpress_shared_section" class="ae line" style="stroke-linecap:butt;stroke-dasharray:12, 12;stroke-dashoffset:0" d="m 219.64926,726.35907 40.19949,-26.07555 c 8.23545,-5.34195 6.79086,-16.48625 20.21838,-22.66339 l 30.3815,-13.97658 c 6.92981,-3.18796 20.03455,0.34475 26.98556,-2.70408 2.68028,-1.17562 9.89571,-5.84172 12.13491,-8.24341 M 367,634 c 22.22096,-16.03627 17.62425,-11.97941 34.9906,-12.50484 4.74174,-0.14347 13.25569,-3.89887 19.00622,-7.61026 l 19.33264,-12.47729 c 3.53277,-2.28005 6.50363,-3.10286 8.55038,-4.16183 L 543.5,569 M 707,734.5 c -12.21491,13.4402 -17.93175,22.61515 -13.40938,34.05953"/>
	<path id="southislandline" class="sie line" d="m 723,795 -3,3 c -2,2 -4,5.6 -2,9 l 37,63 c 4.1,7 -3,14 -7,17 -7,5 -4,0 -20,2 l -8,1 c -4,0.5 -8,4 -12,7 -4,3 -5,2 -9,7 -2,2.5 -4,5 -7,5 -3,0 -5,0 -7,-2 l -4,-4"/>
	<path id="tsuenwanline" class="tw line" d="m 572.26399,505.86926 c 4.68072,1.30159 19.2612,15.74181 22.91427,16.53262 6.07249,1.31455 10.0478,5.23639 12.35267,6.80187 3.13116,2.1267 13.23038,1.66991 17.49051,3.95101 3.08489,1.65182 7.21969,7.16423 6.95755,14.27045 C 631.16639,569.45331 626.4814,564.48409 621,574 c -6.75844,11.73289 -7.50652,11.24069 5.08178,28.68614 8.58697,11.90022 13.81461,21.46117 32.67815,26.1236 7.60066,1.87863 9.9552,2.61855 14.24007,1.19026 l 15,-5 c 2,-1 7,-0 11,3 l 24,21 c 3.64905,3.19292 5.25892,6.64172 7,16 l 8,43 c 0.61994,3.33216 2.75877,10.50222 3,14 l 2,29 c 0.65254,9.46183 -0.0577,20.80651 -5.10902,33.0875 -2.86523,6.96611 -6.34903,9.04029 -10.47866,9.40879 -4.34555,0.38777 -8.5163,-1.27316 -9.70306,-2.70396 -1.1661,-1.40589 -2.5159,-2.31614 -4.97862,-2.56302 l -7.60746,-0.76262"/>
	<path id="kwuntongline" class="kt line" d="m 792,722 -20,-15 c -8,-5 -12,-1 -13,1 -4,8 -8,8 -11,8 -6,-1 -7,-8 -7,-8 l -8,-42 c -3,-14 0,-11 0,-22 0,-9 3,-15 14,-15 l 18,0 c 6,0 11,-1 17,-6 l 7,-6 c 3,-3 5,-4 9,-4 l 12,0 c 2,0 9,3 11,4 l 19,11 c 7,4 12,14 13,26 l 1,14 c 1,7 -3,14 5,18 l 8,4 c 2,1 4,4 6,5 6,2 9,2 15,6 3,2 8,5 11,8 3,2 2,4 5.5,6.5 2,2 6,4 7.5,15.5 0,3 1,4 7,12 8,10 16.37425,4 21,-4 3,-5 13,-14 25,-22"/>
	<path id="tseungkwanoline" class="tko line" d="m 973,678 c 3.25,3 7.52476,5.91032 13,12 5.28553,5.87868 5.03547,8.26034 -6,20 -4.53428,4.82362 -29.25672,17.56144 -38,31 -9.7079,14.9212 -21.18001,10.12947 -26,3 -6.7182,-9.93719 -8.88601,-10.02622 -16,-6 l -45.32348,25.65117 C 850.23249,766.16631 851.4896,767.18371 847,768 l -11,2 c -6.56847,1.19427 -7.46289,-9.18712 -15,-8 l -6.01849,0.94793 c -3.84655,0.60585 -5.97666,7.4744 -8.07028,12.10859"/>
	<path id="lohasparkspur" class="tko line" d="m 980,710 c 7.68458,-6.64582 14.68266,-13.33563 25.3908,-4.66295 15.1997,12.31044 16.7829,20.60823 10.6092,29.66295 l -15,22"/>
	<path id="islandline" class="il line" d="m 604,790 9.13972,0 c 3.13262,0 5.45559,-1.23774 8.86028,-2 l 4.46655,-1 c 1.65059,-0.36954 5.31164,-3.18885 6.53345,-4 1.3691,-0.90894 4.3068,-3.424 10,-3 13.35331,0.99449 13.09285,1.57642 19,-4 3.16888,-2.99146 4.36677,-5.13925 7.5,-5 l 4.5,0.2 c 1.8199,0.0809 5.44661,0.79751 9,1.8 l 6.1138,1.72484 c 3.10785,0.87679 6.92554,6.15439 7.8862,7.27516 l 6,7 c 0.56093,0.65442 2.76694,3.25858 4.5,4 2.07954,0.88965 3.31992,0.88199 4.5,1 l 5,0.5 c 3.26024,0.32602 11.84214,5.5016 14.65204,5.50139 L 745,800.00039 c 11.25278,-8.4e-4 20.47591,-4.43504 29.8018,-7.33139 7.55814,-2.34733 15.58848,0.1371 19.90236,-5.56805 3.32709,-4.40011 5.64581,-6.01414 6.16871,-12.21597 0.0442,-0.52408 0.89257,-5.35093 1.12713,-5.88498 1.41136,-3.21345 2.89741,-7.20062 10.01507,-8.438 L 821,759 c 11.22966,-1.95224 15.36796,2.20222 17,5 l 7,12 c 1.55552,2.6666 6.82264,3.8453 12,4 9.18505,0.27445 11.24041,-0.21343 15.69202,4.53657 6.50975,6.94609 10.31169,8.82978 16.63884,10.82127 13.0461,4.10632 21.86127,-7.14396 31.25479,3.61225 6.73919,7.71681 7.3779,14.948 5.28097,19.51723 l -10.79853,23.53005"/>
	<path class="np" d="M 114,766 99,760 44,808 6,861" fill="none" stroke-width="2"/>
	<path d="m 749,748 -6,-4 M 703,776 l 2,13" stroke="#000" stroke-width="1"/>
	<use transform="translate(0.4619549,-3.0796993)" id="ho_tung_lau" x="819" y="443" xlink:href="#depot"/>
	<use transform="translate(1.8441856,1.4661052)" id="tai_wai_main" x="754" y="534" xlink:href="#depot"/>
	<use transform="matrix(0,-1,1,0,453.20482,371.42513)" id="pat_heung_main" x="0" y="0" xlink:href="#depot"/>
	<use transform="matrix(0,-1,1,0,175,497)" id="LRT_depot" x="0" y="0" xlink:href="#depot"/>
	<use transform="matrix(0,-1,1,0,591,509)" id="tsuen_wan_depot" x="0" y="0" xlink:href="#depot"/>
	<use id="siu_ho_wan_depot" x="236" y="705" xlink:href="#depot"/>
	<use transform="matrix(0,-1,1,0,838,657)" id="kowloon_bay_depot" x="0" y="0" xlink:href="#depot"/>
	<use transform="matrix(0,-1,1,0,1009.5,748.5)" id="tko_south_depot" x="0" y="0" xlink:href="#depot"/>
	<use transform="matrix(0,-1,1,0,912.87427,807.03143)" id="heng_fa_chuen_depot" x="0" y="0" xlink:href="#depot"/>
	<use transform="translate(1.13989 3.60965)" x="113" y="763" xlink:href="#station"/>
	<use x="6" y="861" xlink:href="#station"/>
	<use transform="translate(3.96259 -1.15576)" x="584" y="73" xlink:href="#station"/>
	<use x="469" y="111" xlink:href="#station"/>
	<use x="622" y="147" xlink:href="#station"/>
	<use x="646" y="169" xlink:href="#station"/>
	<use x="711" y="295" xlink:href="#station"/>
	<use x="737" y="315" xlink:href="#station"/>
	<use x="841" y="401" xlink:href="#station"/>
	<use x="821.5" y="449" xlink:href="#station"/>
	<use x="806" y="456" xlink:href="#station"/>
	<use x="780" y="497" xlink:href="#station"/>
	<use transform="matrix(-0.6427876 0.7660444 -0.7660444 -0.6427876 755 529)" xlink:href="#interchange"/>
	<use x="756" y="622" xlink:href="#interchange" transform="matrix(0 1 -1 0 1376 -127)"/>
	<use x="745" y="673" xlink:href="#station"/>
	<use transform="matrix(0 1 -1 0 768.3318 725.0257)" xlink:href="#interchange"/>
	<use x="749" y="748" xlink:href="#station"/>
	<use x="934" y="360" xlink:href="#station"/>
	<use x="903" y="370" xlink:href="#station"/>
	<use x="886" y="393" xlink:href="#station"/>
	<use x="880" y="418" xlink:href="#station"/>
	<use x="841" y="477" xlink:href="#station"/>
	<use y="495" xlink:href="#station" x="825"/>
	<use x="806" y="512" xlink:href="#station" width="1" height="1"/>
	<use x="781" y="520" xlink:href="#station"/>
	<use transform="translate(2 -3.40455)" x="726" y="725" xlink:href="#station"/>
	<use transform="matrix(-0.2314059 -0.9728573 0.9728573 -0.2314059 648.3016 625.6804)" xlink:href="#interchange"/>
	<use transform="translate(-4)" x="579" y="539" xlink:href="#station"/>
	<use x="451" y="345" xlink:href="#station"/>
	<use transform="matrix(0.98 0.17 -0.17 0.98 372.4301 313.4698)" xlink:href="#interchange"/>
	<use transform="translate(-2.41613 -0.4393)" x="351" y="307" xlink:href="#station"/>
	<use transform="matrix(-0.6923852 -0.7182637 0.7182637 -0.6923852 294.6597 299.3904)" xlink:href="#interchange"/>
	<use transform="matrix(-0.34 0.94 -0.94 -0.34 221 410)" xlink:href="#interchange"/>
	<use transform="matrix(-0.94775236 -0.31775063 0.31775063 -0.94775236 205.8812 459.475)" xlink:href="#interchange"/>
	<use transform="translate(0.54912 -3.5199)" x="119" y="677" xlink:href="#station"/>
	<use transform="translate(5.80332 -9.038)" x="103" y="698" xlink:href="#station"/>
	<use transform="translate(3.869 0.709)" x="117" y="766" xlink:href="#station"/>
	<use transform="matrix(0.99510188 0.09686783 -0.09686783 0.99510188 567.1177 567.3387)" xlink:href="#interchange"/>
	<use x="710" y="685" xlink:href="#station"/>
	<use transform="matrix(0.087155 -0.996 0.996 0.087155 713 724)" xlink:href="#interchange"/>
	<use transform="matrix(0.93969262 0.34202014 -0.34202014 0.93969262 307.8037 -193.6416)" xlink:href="#interchange" x="703" y="776"/>
	<use transform="translate(-2.92571)" x="404" y="692" xlink:href="#station"/>
	<use x="595" y="522" xlink:href="#station"/>
	<use transform="translate(0.7 5.9)" x="614" y="525" xlink:href="#station"/>
	<use x="631.5" y="553" xlink:href="#station"/>
	<use x="622.5" y="572.5" xlink:href="#station"/>
	<use x="678" y="628" xlink:href="#station"/>
	<use x="705" y="633" xlink:href="#station"/>
	<use x="720" y="646" xlink:href="#station"/>
	<use transform="matrix(0.08715574 0.9961947 -0.9961947 0.08715574 731 665)" xlink:href="#interchange"/>
	<use transform="matrix(0.08715574 0.9961947 -0.9961947 0.08715574 734 681)" xlink:href="#interchange"/>
	<use transform="matrix(0.08715574 0.9961947 -0.9961947 0.08715574 737 698)" xlink:href="#interchange"/>
	<use x="774" y="708" xlink:href="#station"/>
	<use x="790" y="720.5" xlink:href="#station"/>
	<use x="741" y="723" xlink:href="#station"/>
	<use x="743" y="744" xlink:href="#station"/>
	<use transform="matrix(0.9848078 0.1736482 -0.1736482 0.9848078 722 796)" xlink:href="#interchange"/>
	<use xlink:href="#interchange" x="705" y="789" transform="matrix(0.76604444 0.64278761 -0.64278761 0.76604444 672.0981 -268.5743)"/>
	<use x="733" y="644" xlink:href="#station"/>
	<use x="782" y="623" xlink:href="#station"/>
	<use x="799" y="613" xlink:href="#station"/>
	<use x="821" y="617" xlink:href="#station"/>
	<use x="840" y="628" xlink:href="#station"/>
	<use x="854" y="668" xlink:href="#station"/>
	<use x="867" y="690" xlink:href="#station"/>
	<use x="888" y="701" xlink:href="#station"/>
	<use x="904.5" y="715.5" xlink:href="#station"/>
	<use transform="matrix(0.82309695 0.56790097 -0.56790097 0.82309695 915.3958 740.6411)" xlink:href="#interchange"/>
	<use transform="matrix(0.7660444 -0.6427876 0.6427876 0.7660444 958 723)" xlink:href="#interchange"/>
	<use x="973" y="678" xlink:href="#station"/>
	<use x="986" y="690" xlink:href="#station"/>
	<use x="980" y="710" xlink:href="#station"/>
	<use x="1004" y="753" xlink:href="#station"/>
	<use x="622" y="788" xlink:href="#station"/>
	<use x="643" y="780" xlink:href="#station"/>
	<use x="662" y="776" xlink:href="#station"/>
	<use x="683" y="773" xlink:href="#station"/>
	<use x="745" y="800" xlink:href="#station"/>
	<use x="775" y="792.5" xlink:href="#station"/>
	<use x="794" y="788" xlink:href="#station"/>
	<use x="802" y="769" xlink:href="#station"/>
	<use transform="matrix(0.99893864 -0.04606113 0.04606113 0.99893864 821 760.5)" xlink:href="#interchange"/>
	<use transform="matrix(0.9763945 0.2159949 -0.2159949 0.9763945 842 769)" xlink:href="#interchange"/>
	<use x="857" y="780" xlink:href="#station"/>
	<use x="875" y="786.5" xlink:href="#station"/>
	<use x="892" y="796" xlink:href="#station"/>
	<use x="923.5" y="803.5" xlink:href="#station"/>
	<use x="916.5" y="839" xlink:href="#station"/>
	<use transform="matrix(0.52934694 0.84840546 -0.67696146 0.42237762 641.1594 -307.8715)" x="756" y="622" xlink:href="#interchange"/>
	<use transform="matrix(0.82399074 0.56660327 -0.4490205 0.65299434 347.7397 -177)" x="756" y="622" xlink:href="#interchange"/>
	<use transform="matrix(-0.87701051 0.48047119 -0.38337858 -0.69978607 1259.833 718.408)" x="756" y="622" xlink:href="#interchange"/>
	<use x="748" y="887" xlink:href="#station"/>
	<use x="728" y="889" xlink:href="#station"/>
	<use x="699" y="904" xlink:href="#station"/>
	<use x="681" y="903" xlink:href="#station"/>
	<g style="font-size:10px;stroke:#fff;stroke-width:1.5;stroke-linecap:round;stroke-linejoin:round">
		<g id="stname">
			<g class="text" transform="translate(7,3)">
				<text x="589" y="73">Lo Wu</text>
				<text x="466" y="103">Lok Ma Chau</text>
				<text x="623" y="146">Sheung Shui</text>
				<text x="647" y="168">Fanling</text>
				<text x="697" y="295" text-anchor="end">Tai Wo</text>
				<text x="728" y="325" text-anchor="end">Tai Po Market</text>
				<text x="829" y="400" text-anchor="end">University</text>
				<text x="820" y="450">Racecourse</text>
				<text x="793" y="456" text-anchor="end">Fo Tan</text>
				<text x="767" y="497" text-anchor="end">Sha Tin</text>
				<text x="738" y="527" text-anchor="end">Tai Wai</text>
				<text x="750" y="637">Kowloon Tong</text>
				<text x="743" y="664">Mong Kok<tspan x="743" dy="10">East</tspan></text>
				<text x="768" y="730">Hung Hom</text>
				<text x="934" y="360">Wu Kai Sha</text>
				<text x="900" y="378">Ma On Shan</text>
				<text x="885" y="396">Heng On</text>
				<text x="879" y="418">Tai Shui Hang</text>
				<text x="840" y="477">Shek Mun</text>
				<text x="824" y="495">City One</text>
				<text x="805" y="513">Sha Tin Wai</text>
				<text x="778" y="529">Che Kung Temple</text>
				<text x="740" y="757">East Tsim<tspan x="740" dy="10">Sha Tsui</tspan></text>
				<text transform="translate(716,717)rotate(30)" text-anchor="end">Austin</text>
				<text x="678" y="662" text-anchor="end">Nam Cheong</text>
				<text x="640" y="605">Mei<tspan x="640" dy="10">Foo</tspan></text>
				<text x="561" y="538" text-anchor="end">Tsuen Wan West</text>
				<text x="451" y="345">Kam Sheung Road</text>
				<text x="367" y="325">Yuen Long</text>
				<text x="335" y="287">Long<tspan x="335" dy="10">Ping</tspan></text>
				<text x="275" y="300" text-anchor="end">Tin Shui Wai</text>
				<text x="221" y="410">Siu Hong</text>
				<text x="205" y="470">Tuen Mun</text>
				<text x="561" y="498">Tsuen<tspan x="561" dy="10">Wan</tspan></text>
				<text x="613" y="525">Tai Wo Hau</text>
				<text x="631" y="552">Kwai Hing</text>
				<text x="622" y="572">Kwai Fong</text>
				<text x="607" y="600" text-anchor="end">Lai King</text>
				<text x="670" y="598">Lai<tspan x="670" dy="10">Chi</tspan><tspan x="670" dy="10">Kok</tspan></text>
				<text x="697" y="605">Cheung<tspan x="697" dy="10">Sha</tspan><tspan x="697" dy="10">Wan</tspan></text>
				<text text-anchor="end" x="707" y="646">Sham Shui Po</text>
				<text text-anchor="end" x="718" y="672">Prince Edward</text>
				<text x="734" y="685">Mong Kok</text>
				<text text-anchor="end" x="723" y="695">Yau Ma Tei</text>
				<text x="772" y="706">Ho Man Tin</text>
				<text x="788" y="720">Whampoa</text>
				<text x="733" y="714">Jordan</text>
				<text x="731" y="744" text-anchor="end">Tsim<tspan x="731" dy="10">Sha</tspan><tspan x="731" dy="10">Tsui</tspan></text>
				<text x="732" y="648">Shek Kip Mei</text>
				<text x="760" y="607">Lok<tspan x="760" dy="10">Fu</tspan></text>
				<text x="785" y="585">Wong<tspan x="785" dy="10">Tai</tspan><tspan x="785" dy="10">Sin</tspan></text>
				<text x="810" y="609">Diamond Hill</text>
				<text x="839" y="629">Choi Hung</text>
				<text x="853" y="669">Kowloon Bay</text>
				<text x="864" y="684">Ngau Tau Kok</text>
				<text x="887" y="698">Kwun Tong</text>
				<text x="890" y="716" text-anchor="end">Lam Tin</text>
				<text x="890" y="752">Yau<tspan x="890" dy="10">Tong</tspan></text>
				<text x="950" y="735">Tiu Keng<tspan x="950" dy="10">Leng</tspan></text>
				<text x="119" y="680">AsiaWorld–Expo</text>
				<text x="94" y="691" text-anchor="end">Airport</text>
				<text x="96" y="778">Tung Chung</text>
				<text x="343" y="642" text-anchor="end">Sunny Bay</text>
				<text x="321" y="702">Disneyland Resort</text>
				<text x="528" y="557">Tsing Yi</text>
				<text x="697" y="683" text-anchor="end">Olympic</text>
				<text x="698" y="723" text-anchor="end">Kowloon</text>
				<text x="703" y="782">Hong Kong</text>
				<text x="943" y="668">Po Lam</text>
				<text x="985" y="680">Hang<tspan x="985" dy="10">Hau</tspan></text>
				<text x="980" y="713">Tseung<tspan x="980" dy="10">Kwan O</tspan></text>
				<text x="953" y="764">LOHAS Park</text>
				<text x="617" y="797" text-anchor="end">Kennedy Town</text>
				<g text-anchor="end">
					<text transform="translate(628,775)rotate(30)">HKU</text>
					<text transform="translate(648,770)rotate(30)">Sai Ying Pun</text>
					<text transform="translate(675,765)rotate(30)">Sheung Wan</text>
				</g>
				<text x="692" y="792" text-anchor="end">Central</text>
				<text x="710" y="804" text-anchor="end">Admiralty</text>
				<text transform="translate(740,808)rotate(30)">Wan Chai</text>
				<text transform="translate(765,800)rotate(30)">Causeway Bay</text>
				<text transform="translate(788,795)rotate(30)">Tin Hau</text>
				<text x="796" y="778">Fortress<tspan x="796" dy="10">Hill</tspan></text>
				<text x="797" y="741">North<tspan x="797" dy="10">Point</tspan></text>
				<text x="829" y="749">Quarry<tspan x="829" dy="10">Bay</tspan></text>
				<text x="840" y="791">Tai<tspan x="840" dy="10">Koo</tspan></text>
				<text x="874" y="784">Sai Wan Ho</text>
				<text x="870" y="805">Shau<tspan x="870" dy="10">Kei</tspan><tspan x="870" dy="10">Wan</tspan></text>
				<text x="923" y="804">Heng Fa Chuen</text>
				<text x="915" y="843">Chai Wan</text>
				<text x="746" y="895">Ocean Park</text>
				<text x="724" y="878" text-anchor="end">Wong Chuk Hang</text>
				<text x="697" y="912">Lei Tung</text>
				<text x="668" y="910" text-anchor="end">South Horizons</text>
				<text x="6" y="861">Ngong Ping</text>
			</g>
		</g>
	</g>
	<use id="use370" style="font-size:10px;fill:#000;stroke:none" x="0" y="0" xlink:href="#stname"/>
	<path fill="#003366" d="M -20,50 H 480 q 28,0 48,-20 l 10,-10 q 20,-20 48,-20 H -20"/>
	<text x="15" y="32" class="title" style="font-size:30px;fill:#fff">Hong Kong MTR system map (2016)</text>
	<g transform="translate(810,5)" id="legendbox_group">
		<rect width="220" height="325" ry="15" x="0" y="0" id="legendbox" style="fill:#fff;stroke:#000;stroke-width:2"/>
		<text x="35" y="18" class="title" style="text-anchor:middle;font-size:13px">Legend</text>
		<text class="text" style="font-size:13px;text-anchor:start">
			<tspan x="65" y="34">Airport Express</tspan>
			<tspan x="65" dy="18">Disneyland Resort Line</tspan>
			<tspan x="65" dy="18">East Rail Line</tspan>
			<tspan x="65" dy="18">Island Line</tspan>
			<tspan x="65" dy="18">Kwun Tong Line</tspan>
			<tspan x="65" dy="18">Ma On Shan Line</tspan>
			<tspan x="65" dy="18">South Island Line</tspan>
			<tspan x="65" dy="18">Tseung Kwan O Line</tspan>
			<tspan x="65" dy="18">Tsuen Wan Line</tspan>
			<tspan x="65" dy="18">Tung Chung Line</tspan>
			<tspan x="65" dy="18">West Rail Line</tspan>
			<tspan x="65" dy="18">Light Rail</tspan>
			<tspan x="65" dy="18">Ngong Ping Cable Car</tspan>
			<tspan x="65" dy="28">Station</tspan>
			<tspan x="65" dy="18">Interchange</tspan>
			<tspan x="65" dy="18">Depot</tspan>
		</text>
		<g style="fill:none;stroke-linecap:round">
			<g style="stroke-width:5">
				<path d="m 15,30 40,0" class="ae"/>
				<path d="m 15,48 40,0" class="dn"/>
				<path d="m 15,66 40,0" class="er"/>
				<path d="m 15,84 40,0" class="il"/>
				<path d="m 15,102 40,0" class="kt"/>
				<path d="m 15,120 40,0" class="mos"/>
				<path d="m 15,138 40,0" class="sie"/>
				<path d="m 15,156 40,0" class="tko"/>
				<path d="m 15,174 40,0" class="tw"/>
				<path d="m 15,192 40,0" class="tc"/>
				<path d="m 15,210 40,0" class="wr"/>
			</g>
			<g style="stroke-width:3">
				<path d="m 15,228 40,0" class="lr"/>
				<path d="m 15,246 40,0" class="np"/>
			</g>
		</g>
		<use id="use465" x="35" y="274" xlink:href="#station"/>
		<path d="m 26,288 8,8 M 8,260 h 204" style="fill:none;stroke:#000;stroke-width:1"/>
		<use id="use470" x="26" y="288" xlink:href="#station"/>
		<use id="use468" x="34" y="296" xlink:href="#station"/>
		<use id="use472" x="45" y="292" xlink:href="#interchange"/>
		<use id="use474" x="35" y="305" xlink:href="#depot"/>
	</g>
</svg>